<svg xmlns="http://www.w3.org/2000/svg" xmlns:xlink="http://www.w3.org/1999/xlink" id="eIevZA9S7VB1" viewBox="-50 0 200 100" shape-rendering="geometricPrecision" text-rendering="geometricPrecision"><text dx="0" dy="0" font-family="&quot;Times New Roman&quot;" font-size="7.5" font-weight="700" transform="matrix(4.49889 0 0 7.05191 36.199189 69.916091)" stroke-width="0">
<tspan y="0" font-family=" var(--chakra-fonts-heading);" font-size="7.5" fill="var(--orange)" font-weight="700" font-style="normal" stroke-width="0">

VH

</tspan>
<tspan y="0" font-family=" var(--chakra-fonts-heading);" font-size="7.5" fill="var(--green)" font-weight="700" font-style="normal" stroke-width="0">

RS

</tspan>
</text>
<g transform="translate(-31.649193 20.029788)"><path d="M30.694,59.94c-1.078,0-1.967-.857-1.998-1.941-.032-1.104.837-2.025,1.94-2.058.314-.009.628-.022.939-.042c1.12-.084,2.051.771,2.119,1.873.068,1.103-.771,2.052-1.873,2.119-.354.021-.711.037-1.068.048-.02.001-.039.001-.059.001Zm-5.998-.472c-.121,0-.244-.011-.368-.034-.356-.066-.71-.139-1.062-.219-1.077-.245-1.752-1.317-1.507-2.394s1.319-1.751,2.394-1.507c.301.068.604.131.907.188c1.086.202,1.803,1.246,1.6,2.332-.179.962-1.02,1.634-1.964,1.634ZM37.63,58.88c-.872,0-1.673-.574-1.923-1.455-.302-1.063.314-2.168,1.378-2.47.299-.085.595-.176.89-.271c1.054-.339,2.179.233,2.521,1.284.341,1.05-.233,2.179-1.284,2.521-.342.111-.687.216-1.034.314-.183.052-.368.077-.548.077ZM18.013,57.318c-.284,0-.572-.061-.847-.188-.327-.153-.651-.312-.972-.477-.982-.506-1.369-1.712-.863-2.693.505-.981,1.711-1.368,2.693-.863.275.142.555.278.837.41c1,.468,1.432,1.659.964,2.659-.339.726-1.06,1.152-1.812,1.152Zm26.074-1.196c-.688,0-1.356-.354-1.729-.991-.558-.953-.236-2.178.718-2.735.267-.156.53-.318.791-.484.934-.594,2.168-.318,2.762.613.593.932.318,2.168-.613,2.762-.304.193-.61.381-.922.563-.317.184-.665.272-1.007.272ZM12.08,53.564c-.449,0-.9-.15-1.273-.458-.277-.229-.551-.464-.819-.703-.825-.734-.898-1.998-.163-2.823.732-.824,1.998-.899,2.823-.163.231.206.468.407.708.605.852.704.971,1.965.268,2.816-.397.479-.969.726-1.544.726Zm37.564-1.721c-.514,0-1.026-.196-1.417-.589-.779-.782-.777-2.049.006-2.828.222-.221.439-.445.654-.674.757-.804,2.021-.843,2.827-.087.805.756.844,2.022.087,2.827-.244.26-.493.516-.746.768-.389.389-.9.583-1.411.583ZM7.271,48.456c-.617,0-1.227-.284-1.618-.821-.211-.29-.418-.585-.618-.881-.617-.916-.376-2.159.539-2.777.917-.618,2.159-.376,2.777.539.173.257.351.511.534.762.65.893.455,2.144-.438,2.795-.354.258-.768.383-1.176.383Zm46.696-2.14c-.349,0-.701-.091-1.022-.282-.949-.566-1.259-1.794-.693-2.742.16-.269.315-.539.466-.813.531-.968,1.747-1.322,2.717-.789.968.532,1.321,1.748.789,2.717-.174.315-.353.627-.536.935-.377.626-1.04.974-1.721.974ZM3.882,42.312c-.797,0-1.549-.479-1.86-1.265-.132-.332-.259-.669-.379-1.008-.369-1.041.175-2.185,1.216-2.554c1.039-.369,2.184.174,2.554,1.216.104.294.214.584.328.873.407,1.026-.096,2.188-1.123,2.596-.242.096-.491.142-.736.142Zm52.897-2.427c-.186,0-.374-.026-.562-.081-1.06-.31-1.669-1.42-1.359-2.48.087-.299.17-.601.248-.904.272-1.068,1.357-1.721,2.433-1.442c1.069.272,1.716,1.362,1.442,2.433-.088.347-.184.691-.283,1.035-.255.872-1.053,1.439-1.919,1.439ZM2.133,35.515c-.992,0-1.853-.738-1.981-1.748-.045-.357-.084-.716-.115-1.078-.097-1.101.718-2.07,1.818-2.166c1.122-.112,2.07.719,2.166,1.818.027.31.061.617.1.922.139,1.096-.637,2.097-1.732,2.236-.087.011-.172.016-.256.016Zm55.762-2.559c-.023,0-.047,0-.071-.001-1.104-.039-1.967-.965-1.929-2.069.011-.311.017-.622.017-.935v-.113c0-1.104.896-2,2-2s2,.896,2,2v.113c0,.359-.006.718-.019,1.075-.038,1.08-.925,1.93-1.998,1.93ZM2.125,28.497c-.082,0-.164-.005-.247-.015-1.096-.135-1.876-1.133-1.741-2.229.044-.356.094-.711.149-1.062.172-1.092,1.198-1.837,2.286-1.665c1.092.172,1.837,1.195,1.665,2.286-.048.308-.092.617-.13.929-.125,1.013-.987,1.756-1.982,1.756Zm55.124-2.642c-.918,0-1.745-.636-1.951-1.57-.067-.303-.14-.605-.217-.904-.278-1.069.363-2.161,1.433-2.438c1.072-.28,2.161.364,2.438,1.433.091.348.175.697.252,1.051.237,1.078-.444,2.146-1.523,2.383-.145.03-.29.045-.432.045ZM3.84,21.693c-.242,0-.49-.045-.729-.14-1.028-.403-1.535-1.563-1.131-2.592.132-.337.27-.671.413-1c.441-1.012,1.616-1.476,2.633-1.033c1.013.441,1.475,1.62,1.033,2.633-.124.284-.242.571-.356.861-.31.789-1.065,1.271-1.863,1.271Zm51.047-2.444c-.732,0-1.438-.402-1.788-1.101-.139-.275-.283-.546-.433-.814-.536-.966-.188-2.184.778-2.72.966-.534,2.183-.187,2.72.778.175.315.345.635.507.957.497.987.1,2.189-.887,2.686-.288.145-.595.214-.897.214ZM7.206,15.532c-.406,0-.815-.123-1.17-.379-.896-.648-1.096-1.898-.449-2.793.211-.292.428-.58.65-.865.682-.871,1.938-1.022,2.808-.343.87.681,1.023,1.938.343,2.808-.191.245-.377.493-.559.744-.392.541-1.003.828-1.623.828ZM50.95,13.445c-.557,0-1.109-.23-1.505-.682-.205-.233-.413-.461-.625-.686-.761-.802-.727-2.067.075-2.827s2.068-.727,2.827.075c.249.262.492.528.73.801.729.831.645,2.095-.186,2.822-.379.334-.848.497-1.316.497ZM12.002,10.404c-.574,0-1.145-.246-1.54-.723-.705-.85-.588-2.111.261-2.816.275-.229.555-.451.837-.67.871-.676,2.127-.518,2.806.356.677.873.518,2.129-.356,2.806-.247.191-.491.387-.731.586-.375.31-.827.461-1.277.461ZM45.689,8.796c-.389,0-.781-.113-1.126-.349-.257-.175-.516-.345-.778-.51-.936-.588-1.217-1.823-.629-2.758.588-.936,1.825-1.217,2.758-.629.306.192.607.39.905.594.912.623,1.146,1.867.523,2.779-.386.569-1.014.873-1.653.873ZM17.915,6.631c-.749,0-1.468-.423-1.81-1.146-.472-.999-.045-2.191.954-2.663.323-.152.649-.3.978-.44c1.015-.44,2.191.032,2.627,1.047.437,1.015-.032,2.191-1.047,2.627-.285.123-.568.251-.849.384-.276.13-.567.191-.853.191ZM39.439,5.605c-.225,0-.453-.038-.676-.119-.293-.104-.589-.205-.888-.301-1.052-.336-1.633-1.461-1.297-2.514.336-1.052,1.459-1.634,2.514-1.297.344.109.685.226,1.022.348c1.04.373,1.58,1.519,1.206,2.558-.292.816-1.06,1.325-1.881,1.325ZM24.58,4.454c-.941,0-1.78-.667-1.963-1.626-.206-1.085.506-2.132,1.591-2.339.352-.066.706-.129,1.062-.183c1.093-.164,2.112.582,2.279,1.674s-.582,2.112-1.674,2.279c-.309.048-.614.101-.919.159-.126.024-.252.036-.376.036Zm8.01-.378c-.063,0-.126-.003-.189-.009-.309-.029-.618-.053-.931-.07-1.103-.064-1.944-1.011-1.881-2.113.064-1.103,1.004-1.936,2.113-1.881.359.021.718.049,1.073.082c1.1.104,1.907,1.079,1.804,2.179-.098,1.035-.969,1.812-1.989,1.812Z"/></g><g transform="matrix(.108827 0 0 0.098101-26.16411 27.927923)"><path d="M449.312,156.296c-1.155-2.22-3.559-3.487-6.052-3.186L338.193,165.975c-1.358.167-2.734.251-4.092.251-17.171,0-31.368-12.913-33.025-30.036l-5.002-51.688c-.16-1.655-1-3.169-2.318-4.182-1.32-1.012-3-1.431-4.64-1.159-2.186.364-4.411.549-6.615.549-15.963,0-30.394-9.468-36.764-24.121L230.499,20.54c-.953-2.191-3.114-3.608-5.503-3.608s-4.55,1.417-5.502,3.607L204.255,55.588c-6.371,14.654-20.802,24.122-36.764,24.121-2.204,0-4.43-.185-6.615-.549-1.638-.272-3.319.147-4.64,1.159-1.318,1.012-2.158,2.527-2.318,4.182l-5.002,51.688c-1.658,17.123-15.855,30.036-33.026,30.036-1.357,0-2.733-.084-4.092-.251L6.73,153.111c-2.487-.303-4.896.965-6.052,3.186-1.155,2.22-.812,4.924.862,6.784l31.778,35.305c14.646,16.271,19.97,38.601,14.241,59.729-.44,1.625-.178,3.362.725,4.785.902,1.422,2.361,2.399,4.021,2.693l38.846,6.876c9.494,1.68,17.199,8.067,20.612,17.084c3.412,9.017,1.866,18.905-4.137,26.451L87.127,341.772c-1.265,1.589-1.639,3.711-.995,5.637s2.219,3.396,4.185,3.906c10.821,2.806,21.961,4.228,33.108,4.228c36.57,0,70.745-14.801,95.57-40.982v112.494c0,3.313,2.687,6,6,6s6-2.687,6-6v-112.492c24.828,26.183,59.002,40.982,95.569,40.98c11.15,0,22.29-1.423,33.108-4.228c1.966-.51,3.541-1.98,4.185-3.906s.27-4.048-.995-5.637l-20.499-25.768c-6.003-7.545-7.549-17.433-4.136-26.451c3.412-9.017,11.118-15.404,20.612-17.084l38.845-6.876c1.659-.294,3.117-1.271,4.021-2.693.902-1.423,1.165-3.159.725-4.785-5.729-21.129-.404-43.458,14.241-59.729l31.778-35.305c1.674-1.861,2.018-4.565.863-6.785ZM339.651,177.887l79.084-9.684c-24.454,13.453-64.299,35.933-102.081,59.713-6.233-18.471-3.57-42.098-1.589-53.861c5.791,2.678,12.24,4.171,19.035,4.171c1.843.001,3.711-.114,5.551-.339Zm-31.959-8.137c-.828,4.391-1.948,11.385-2.542,19.635-1.232,17.105.313,31.516,4.571,42.926-33.672,21.491-64.808,43.648-80.726,60.858v-55.231c19.707-7.865,38.293-25.441,53.903-51.035c6.493-10.645,11.248-20.614,14.313-27.719c2.888,4.089,6.435,7.655,10.481,10.566ZM160.858,137.347l3.045-31.462c2.399,5.232,5.35,11.143,8.866,17.269c14.212,24.756,30.425,40.795,48.226,47.737v58.352c-36.195-16.48-57.556-64.65-63.275-79.103c1.62-3.994,2.702-8.285,3.138-12.793Zm125.229-31.462l3.045,31.462c.436,4.51,1.519,8.802,3.14,12.797-5.711,14.455-27.042,62.61-63.276,79.1v-58.353c17.801-6.943,34.013-22.981,48.226-47.737c3.515-6.126,6.467-12.037,8.865-17.269ZM234.731,60.376c8.276,19.036,27.026,31.336,47.769,31.336.305,0,.611-.014.916-.02-6.721,17.032-25.147,56.998-54.421,70.507v-115.017l5.736,13.194ZM167.492,91.712c20.739,0,39.49-12.301,47.766-31.336l5.737-13.194v115.017c-29.24-13.502-47.686-53.472-54.417-70.506.304.005.608.02.912.02.001-.001.001-.001.002-.001Zm-14.713,67.472c3.065,7.105,7.82,17.074,14.312,27.719c15.61,25.595,34.197,43.17,53.904,51.036v55.232c-15.918-17.21-47.054-39.368-80.727-60.859c4.258-11.41,5.802-25.821,4.571-42.926-.594-8.25-1.713-15.244-2.541-19.635c4.046-2.912,7.592-6.478,10.481-10.567Zm-36.89,19.043c6.795,0,13.244-1.493,19.035-4.171c1.981,11.763,4.644,35.39-1.589,53.861-37.783-23.781-77.627-46.26-102.081-59.713l79.084,9.684c1.841.224,3.708.339,5.551.339Zm-73.651,12.13L29.874,176.62c24.321,13.453,62.34,35.012,98.4,57.646-22.19,15.547-53.582,19.434-67.655,20.406c4.135-23.061-2.512-46.683-18.381-64.315Zm80.747,94.949c-4.925-13.012-16.044-22.229-29.743-24.653l-6.467-1.145c20.111-4.311,36.493-11.243,48.766-20.648c32.284,20.556,62.098,41.598,77.886,57.936-19.851,4.944-63.864,16.951-102.931,34.875l6.521-8.197c8.662-10.887,10.893-25.156,5.968-38.168Zm.44,58.237c-5.62,0-11.238-.405-16.807-1.194c37.435-18.251,81.64-30.855,104.256-36.657-22.614,24.176-53.926,37.85-87.449,37.851Zm203.139,0c-33.521.002-64.834-13.673-87.448-37.851c22.615,5.802,66.82,18.406,104.256,36.657-5.569.789-11.187,1.193-16.808,1.194Zm30.184-82.89c-13.7,2.425-24.819,11.641-29.744,24.653s-2.693,27.281,5.969,38.169l6.521,8.197c-39.067-17.924-83.08-29.931-102.931-34.875c15.787-16.337,45.601-37.379,77.886-57.936c12.273,9.405,28.655,16.336,48.766,20.647l-6.467,1.145Zm51.003-70.295c-15.87,17.633-22.517,41.256-18.379,64.32-14.066-.964-45.441-4.837-67.656-20.41c36.06-22.633,74.079-44.193,98.4-57.646l-12.365,13.736Z"/></g>
</svg>